<svg aria-hidden="true" style="width:0;height:0;position:absolute;overflow:hidden" xmlns="http://www.w3.org/2000/svg"><defs><symbol id="icon-github" viewBox="0 0 32 32"><path d="M16 .941C7.729.941.941 7.729.941 16c0 7.058 4.953 13.47 11.529 15.059v-4.982c-.652.143-1.251.147-1.915-.049-.89-.263-1.613-.855-2.15-1.759-.342-.577-.949-1.203-1.581-1.157l-.155-1.758c1.368-.117 2.551.833 3.254 2.014.312.525.671.832 1.132.968.446.131.924.068 1.481-.129.14-1.116.651-1.534 1.037-2.122v-.001c-3.922-.585-5.486-2.666-6.106-4.308-.822-2.181-.381-4.905 1.073-6.627.028-.034.079-.121.059-.183-.667-2.014.146-3.679.176-3.856.769.228.894-.229 3.342 1.258l.423.254c.177.105.121.045.298.032a12.77 12.77 0 0 1 3.16-.445 12.84 12.84 0 0 1 3.204.456l.137.014c-.012-.002.037-.009.12-.058 3.057-1.852 2.947-1.247 3.767-1.513.03.177.831 1.87.172 3.858-.089.274 2.65 2.782 1.132 6.809-.62 1.643-2.183 3.724-6.106 4.309v.001c.503.766 1.107 1.174 1.104 2.755v6.219C26.105 29.47 31.057 23.058 31.057 16 31.057 7.729 24.27.941 15.998.941z"/></symbol><symbol id="icon-telegram" viewBox="0 0 40 32"><path d="m16.205 20.751-.635 8.339c.909 0 1.302-.364 1.774-.802l4.261-3.801 8.829 6.035c1.619.842 2.76.399 3.197-1.39l5.797-25.346c.514-2.234-.866-3.108-2.443-2.56L2.92 13.398c-2.325.842-2.29 2.052-.395 2.6l8.709 2.528L31.463 6.712c.952-.588 1.818-.263 1.106.326L16.205 20.751z"/></symbol><symbol id="icon-facebook" viewBox="0 0 16 32"><path d="M14.266 15.97H10.09v15.39H3.763V15.97H.754v-5.409h3.009v-3.5c0-2.503 1.182-6.422 6.384-6.422l4.687.02v5.25h-3.401c-.558 0-1.342.28-1.342 1.474v3.183h4.729l-.553 5.403z"/></symbol><symbol id="contacts-icon-acent" viewBox="0 0 22 32"><path fill="none" stroke="#d41443" style="stroke:var(--color1,#d41443)" stroke-linejoin="round" stroke-linecap="round" stroke-width="6.4" d="m4.545 3.2 13.7 12.8-13.7 12.8"/></symbol><symbol id="contacts-icon" viewBox="0 0 19 32"><path fill="none" stroke="#fff" style="stroke:var(--color2,#fff)" stroke-linejoin="round" stroke-linecap="round" stroke-width="6.4" d="M3.2 3.2 14.753 16 3.2 28.8"/></symbol><symbol id="icon-arrow" viewBox="0 0 32 32"><path d="m19.414 27.414 10-10a2 2 0 0 0 0-2.828l-10-10a2 2 0 1 0-2.828 2.828L23.172 14H4a2 2 0 1 0 0 4h19.172l-6.586 6.586c-.39.39-.586.902-.586 1.414s.195 1.024.586 1.414a2 2 0 0 0 2.828 0z"/></symbol><symbol id="icon-vector-new" viewBox="0 0 32 32"><path fill="none" stroke="#d41443" style="stroke:var(--color1,#d41443)" stroke-linejoin="round" stroke-linecap="round" stroke-width="6.4" d="M3.322 3.2 18.295 16 3.319 28.8"/></symbol><symbol id="icon-man-cart" viewBox="0 0 46 32"><path d="M21.506.054c-.735.167-1.173.652-1.368 1.517-.04.185-.065.55-.08 1.289-.022.887-.036 1.053-.09 1.187l-.069.156-.224-.022c-.257-.029-.496.011-.995.17a5.696 5.696 0 0 0-2.407 1.517c-.366.38-.514.576-.992 1.332a35.008 35.008 0 0 1-1.546 2.194l-.514.688-.576.319c-.474.264-2.567 1.314-3.305 1.662l-.199.094.398.022c.637.04 1.756.138 1.85.163.083.022.076.036-.224.456-.633.89-.898 1.376-1.057 1.969-.087.322-.094.405-.094 1.162-.004.829.011.97.167 1.672l.076.355-.08 1.564c-.043.862-.087 1.723-.101 1.915l-.022.351-.163-.127c-.673-.514-2.527-1.003-5.039-1.336-.387-.051-.71-.101-.717-.116-.054-.148-.138-.224-.351-.344a7.655 7.655 0 0 1-.528-.319c-.442-.286-.597-.3-.948-.065-.322.21-.605.597-1.473 1.987-.597.956-.688 1.137-.775 1.564-.138.673.018 1.52.329 1.767.195.152.319.072.514-.326.297-.601 1.032-1.216 2.071-1.738l.416-.21.235.047c.127.029.431.076.67.105.854.112 1.658.355 3.471 1.043 2.005.764 3.037 1.079 3.519 1.079.666 0 1.383-.938 2.085-2.715.235-.594.641-1.803.641-1.9 0-.087.062-.062.145.054.181.253.489 1.043.786 2.013l.181.579-.25.38c-.467.702-.923 1.716-1.567 3.49a57.217 57.217 0 0 1-.532 1.394c-.315.76-.453 1.169-.518 1.538-.119.662-.105 2.252.022 2.342.058.04.594.014 1.318-.062.869-.094 2.125-.112 2.751-.036.34.04.633.054.789.04.594-.054.941-.391.713-.684-.098-.123-.232-.159-.688-.188a6.621 6.621 0 0 1-1.484-.279c-.449-.127-.898-.326-.927-.409-.029-.076.036-.376.167-.778a3.18 3.18 0 0 0 .127-.561c.072-.717.539-1.763 1.386-3.095.17-.268.594-.909.941-1.423.728-1.079 1.064-1.629 1.169-1.908.261-.691-.181-2.005-1.767-5.26-.641-1.314-.619-1.22-.387-1.745.072-.159.167-.395.21-.525.203-.576.529-1.09.952-1.51.257-.253.681-.554.775-.554.033 0 .163.047.29.109.557.257 1.017.308 2.784.304.767 0 1.459-.014 1.538-.029.152-.029.134-.036.481.217.119.087.246.033.398-.167l.127-.163 1.361-.022c.749-.011 1.372-.011 1.386 0 .011.011.221.778.463 1.705.416 1.596 1.318 5.039 1.948 7.457.243.927.836 3.298 1.231 4.923l.101.413-.17.224a2.474 2.474 0 0 0-.438.93c-.098.38-.076.97.043 1.329a2.566 2.566 0 0 0 1.614 1.614c.282.09.376.105.757.105.623 0 1.039-.138 1.528-.503.369-.279.699-.749.858-1.224.221-.67.094-1.564-.308-2.136-.04-.051-.069-.105-.069-.116s.945-.022 2.1-.022h2.103l-.112.163c-.261.38-.398.847-.398 1.361 0 .427.069.724.261 1.119.119.25.206.366.46.619.344.344.568.485.999.633.261.09.337.101.76.101.409 0 .507-.014.76-.098a2.487 2.487 0 0 0 1.647-1.734c.09-.322.098-.88.018-1.224-.159-.666-.677-1.325-1.285-1.622-.608-.3-.159-.275-5.517-.29a382.1 382.1 0 0 1-4.793-.025c-.018-.018-.767-3.015-.767-3.066 0-.014 3.052-.029 6.78-.029h6.78l.058-.228c.195-.746 1.712-6.523 1.951-7.424.156-.597.279-1.09.275-1.093l-9.057.025c-4.974.014-9.05.025-9.057.018-.004-.004-.177-.652-.384-1.437l-.376-1.426-1.596-.011-1.6-.007-.018-.091c-.011-.051-.025-.13-.036-.177-.04-.203-.416-.311-1.086-.311-.261 0-.608.018-.771.036-.326.043-.554.014-1.003-.112-.742-.217-1.234-.63-1.31-1.104-.018-.112-.004-.145.159-.315.72-.764 1.039-1.795 1.108-3.569l.007-.235.507-.445c.275-.243.55-.463.608-.485.116-.047.181-.036.568.109.279.101.51.098.637-.011.09-.076.098-.105.094-.297-.004-.17.007-.224.069-.279.065-.062.072-.098.054-.228-.014-.127-.007-.159.033-.159.08 0 .127-.119.127-.319v-.177l.181.018c.167.014.181.011.224-.08.054-.123.004-.337-.152-.655-.098-.203-.101-.221-.043-.282.098-.109.101-.55.011-.963a2.68 2.68 0 0 1-.065-.355c.007-.007.094.004.192.022s.185.029.188.022c.033-.033-.076-.413-.181-.63-.152-.326-.539-.71-.88-.88a3.117 3.117 0 0 0-.561-.206c-.402-.105-1.082-.134-1.408-.058zM41.969 16.17c-.014.058-.094.369-.181.699-.083.329-.214.825-.286 1.104s-.148.557-.167.623l-.036.112-.333.022c-.185.011-1.126.029-2.096.04l-1.767.018v-2.679l1.531-.011c.84-.004 1.94-.011 2.443-.018l.912-.007-.022.098zm3.099-.058c0 .022-.148.605-.329 1.296l-.333 1.26-.76.022c-1.082.036-1.654.033-1.654-.011 0-.047.655-2.545.677-2.581.025-.043 2.4-.033 2.4.014zm-13.694.149c.018.087.177.699.355 1.361.174.662.311 1.213.304 1.22s-.652.022-1.43.036l-1.415.029-.098-.376c-.489-1.853-.623-2.389-.608-2.404.011-.011.659-.018 1.437-.018h1.419l.036.152zm5.079 1.183v1.336l-.695.022c-.384.011-1.227.025-1.875.029l-1.173.011-.333-1.267-.355-1.368-.022-.098h4.453v1.336zm7.782 1.894c-.004.007-.21.8-.467 1.767l-.463 1.756-1.202.011c-.945.007-1.198 0-1.198-.036 0-.025.203-.814.449-1.748l.445-1.701.503-.018c.554-.022 1.933-.04 1.933-.029zm-3.113.054c0 .033-.825 3.211-.872 3.367l-.04.119h-3.106v-3.439l.174-.004c.203-.007 2.679-.051 3.367-.062.261-.004.478.004.478.018zm-4.669 1.766v1.719l-1.347-.007-1.35-.011-.438-1.676c-.279-1.068-.424-1.683-.398-1.694.022-.007.536-.018 1.144-.025.608-.004 1.394-.011 1.748-.018l.641-.007v1.719zM32.268 19.7c.054.192.757 2.892.804 3.081l.022.098-1.437-.007-1.441-.011-.413-1.575c-.224-.865-.42-1.611-.431-1.654-.022-.08-.014-.08.373-.094.214-.004.858-.014 1.43-.018l1.039-.007.054.188zm.623 8.39c.46.224.771.641.858 1.137.112.652-.253 1.332-.869 1.625-.232.109-.272.116-.644.116-.376 0-.413-.007-.644-.119-.605-.297-.974-.981-.862-1.604.076-.438.297-.793.633-1.028.315-.217.525-.275.93-.261.308.007.373.022.597.134zm8.17-.003c.449.214.775.652.862 1.155.112.626-.261 1.314-.869 1.611-.224.109-.264.116-.637.116s-.413-.007-.644-.116c-.963-.456-1.187-1.712-.442-2.458.333-.333.644-.453 1.14-.438.3.011.376.029.59.13z"/></symbol></defs></svg>