<svg aria-hidden="true"  style="position:absolute;width:0;height:0;overflow:hidden" xmlns="http://www.w3.org/2000/svg">
  <defs>

  <!-- social media -->
   
    <symbol id="icon-github" viewBox="0 0 32 32">
      <path d="M16 .941C7.729.941.941 7.729.941 16c0 7.058 4.953 13.47 11.529 15.059v-4.982c-.652.143-1.251.147-1.915-.049-.89-.263-1.613-.855-2.15-1.759-.342-.577-.949-1.203-1.581-1.157l-.155-1.758c1.368-.117 2.551.833 3.254 2.014.312.525.671.832 1.132.968.446.131.924.068 1.481-.129.14-1.116.651-1.534 1.037-2.122v-.001c-3.922-.585-5.486-2.666-6.106-4.308-.822-2.181-.381-4.905 1.073-6.627.028-.034.079-.121.059-.183-.667-2.014.146-3.679.176-3.856.769.228.894-.229 3.342 1.258l.423.254c.177.105.121.045.298.032a12.77 12.77 0 0 1 3.16-.445 12.84 12.84 0 0 1 3.204.456l.137.014c-.012-.002.037-.009.12-.058 3.057-1.852 2.947-1.247 3.767-1.513.03.177.831 1.87.172 3.858-.089.274 2.65 2.782 1.132 6.809-.62 1.643-2.183 3.724-6.106 4.309v.001c.503.766 1.107 1.174 1.104 2.755v6.219C26.105 29.47 31.057 23.058 31.057 16 31.057 7.729 24.27.941 15.998.941z"/>
    </symbol>
    
    <symbol id="icon-telegram" viewBox="0 0 40 32">
      <path d="m16.205 20.751-.635 8.339c.909 0 1.302-.364 1.774-.802l4.261-3.801 8.829 6.035c1.619.842 2.76.399 3.197-1.39l5.797-25.346c.514-2.234-.866-3.108-2.443-2.56L2.92 13.398c-2.325.842-2.29 2.052-.395 2.6l8.709 2.528L31.463 6.712c.952-.588 1.818-.263 1.106.326L16.205 20.751z"/>
    </symbol>

     <symbol id="icon-facebook" viewBox="0 0 16 32">
      <path d="M14.266 15.97H10.09v15.39H3.763V15.97H.754v-5.409h3.009v-3.5c0-2.503 1.182-6.422 6.384-6.422l4.687.02v5.25h-3.401c-.558 0-1.342.28-1.342 1.474v3.183h4.729l-.553 5.403z"/>
    </symbol>
    <symbol id="contacts-icon-acent" viewBox="0 0 22 32"><path fill="none" stroke="#d41443" style="stroke: var(--color1, #d41443)" stroke-linejoin="round" stroke-linecap="round" stroke-miterlimit="4" stroke-width="6.4" d="M4.545 3.2l13.7 12.8-13.7 12.8"></path>
    </symbol>

    <symbol id="contacts-icon" viewBox="0 0 19 32"><path fill="none" stroke="#fff" style="stroke: var(--color2, #fff)" stroke-linejoin="round" stroke-linecap="round" stroke-miterlimit="4" stroke-width="6.4" d="M3.2 3.2l11.553 12.8-11.553 12.8"></path>
    </symbol>
    
    <symbol id="icon-arrow" viewBox="0 0 32 32">
<path d="M19.414 27.414l10-10c0.781-0.781 0.781-2.047 0-2.828l-10-10c-0.781-0.781-2.047-0.781-2.828 0s-0.781 2.047 0 2.828l6.586 6.586h-19.172c-1.105 0-2 0.895-2 2s0.895 2 2 2h19.172l-6.586 6.586c-0.39 0.39-0.586 0.902-0.586 1.414s0.195 1.024 0.586 1.414c0.781 0.781 2.047 0.781 2.828 0z"></path>
</symbol>

<symbol id="icon-vector-new" viewBox="0 0 32 32">
<path fill="none" stroke="#d41443" style="stroke: var(--color1, #d41443)" stroke-linejoin="round" stroke-linecap="round" stroke-miterlimit="4" stroke-width="6.4" d="M3.322 3.2l14.973 12.8-14.976 12.8"></path>
</symbol>

<symbol id="icon-man-cart" viewBox="0 0 46 32">
<path d="M21.506 0.054c-0.735 0.167-1.173 0.652-1.368 1.517-0.040 0.185-0.065 0.55-0.080 1.289-0.022 0.887-0.036 1.053-0.090 1.187l-0.069 0.156-0.224-0.022c-0.257-0.029-0.496 0.011-0.995 0.17-0.912 0.29-1.709 0.793-2.407 1.517-0.366 0.38-0.514 0.576-0.992 1.332-0.398 0.623-0.851 1.267-1.546 2.194l-0.514 0.688-0.576 0.319c-0.474 0.264-2.567 1.314-3.305 1.662l-0.199 0.094 0.398 0.022c0.637 0.040 1.756 0.138 1.85 0.163 0.083 0.022 0.076 0.036-0.224 0.456-0.633 0.89-0.898 1.376-1.057 1.969-0.087 0.322-0.094 0.405-0.094 1.162-0.004 0.829 0.011 0.97 0.167 1.672l0.076 0.355-0.080 1.564c-0.043 0.862-0.087 1.723-0.101 1.915l-0.022 0.351-0.163-0.127c-0.673-0.514-2.527-1.003-5.039-1.336-0.387-0.051-0.71-0.101-0.717-0.116-0.054-0.148-0.138-0.224-0.351-0.344-0.141-0.076-0.376-0.217-0.528-0.319-0.442-0.286-0.597-0.3-0.948-0.065-0.322 0.21-0.605 0.597-1.473 1.987-0.597 0.956-0.688 1.137-0.775 1.564-0.138 0.673 0.018 1.52 0.329 1.767 0.195 0.152 0.319 0.072 0.514-0.326 0.297-0.601 1.032-1.216 2.071-1.738l0.416-0.21 0.235 0.047c0.127 0.029 0.431 0.076 0.67 0.105 0.854 0.112 1.658 0.355 3.471 1.043 2.005 0.764 3.037 1.079 3.519 1.079 0.666 0 1.383-0.938 2.085-2.715 0.235-0.594 0.641-1.803 0.641-1.9 0-0.087 0.062-0.062 0.145 0.054 0.181 0.253 0.489 1.043 0.786 2.013l0.181 0.579-0.25 0.38c-0.467 0.702-0.923 1.716-1.567 3.49-0.174 0.478-0.416 1.104-0.532 1.394-0.315 0.76-0.453 1.169-0.518 1.538-0.119 0.662-0.105 2.252 0.022 2.342 0.058 0.040 0.594 0.014 1.318-0.062 0.869-0.094 2.125-0.112 2.751-0.036 0.34 0.040 0.633 0.054 0.789 0.040 0.594-0.054 0.941-0.391 0.713-0.684-0.098-0.123-0.232-0.159-0.688-0.188-0.442-0.025-0.945-0.119-1.484-0.279-0.449-0.127-0.898-0.326-0.927-0.409-0.029-0.076 0.036-0.376 0.167-0.778 0.058-0.17 0.112-0.424 0.127-0.561 0.072-0.717 0.539-1.763 1.386-3.095 0.17-0.268 0.594-0.909 0.941-1.423 0.728-1.079 1.064-1.629 1.169-1.908 0.261-0.691-0.181-2.005-1.767-5.26-0.641-1.314-0.619-1.22-0.387-1.745 0.072-0.159 0.167-0.395 0.21-0.525 0.203-0.576 0.529-1.090 0.952-1.51 0.257-0.253 0.681-0.554 0.775-0.554 0.033 0 0.163 0.047 0.29 0.109 0.557 0.257 1.017 0.308 2.784 0.304 0.767 0 1.459-0.014 1.538-0.029 0.152-0.029 0.134-0.036 0.481 0.217 0.119 0.087 0.246 0.033 0.398-0.167l0.127-0.163 1.361-0.022c0.749-0.011 1.372-0.011 1.386 0 0.011 0.011 0.221 0.778 0.463 1.705 0.416 1.596 1.318 5.039 1.948 7.457 0.243 0.927 0.836 3.298 1.231 4.923l0.101 0.413-0.17 0.224c-0.214 0.286-0.344 0.561-0.438 0.93-0.098 0.38-0.076 0.97 0.043 1.329 0.253 0.757 0.862 1.368 1.614 1.614 0.282 0.090 0.376 0.105 0.757 0.105 0.623 0 1.039-0.138 1.528-0.503 0.369-0.279 0.699-0.749 0.858-1.224 0.221-0.67 0.094-1.564-0.308-2.136-0.040-0.051-0.069-0.105-0.069-0.116s0.945-0.022 2.1-0.022h2.103l-0.112 0.163c-0.261 0.38-0.398 0.847-0.398 1.361 0 0.427 0.069 0.724 0.261 1.119 0.119 0.25 0.206 0.366 0.46 0.619 0.344 0.344 0.568 0.485 0.999 0.633 0.261 0.090 0.337 0.101 0.76 0.101 0.409 0 0.507-0.014 0.76-0.098 0.822-0.271 1.415-0.898 1.647-1.734 0.090-0.322 0.098-0.88 0.018-1.224-0.159-0.666-0.677-1.325-1.285-1.622-0.608-0.3-0.159-0.275-5.517-0.29-2.628-0.004-4.786-0.018-4.793-0.025-0.018-0.018-0.767-3.015-0.767-3.066 0-0.014 3.052-0.029 6.78-0.029h6.78l0.058-0.228c0.195-0.746 1.712-6.523 1.951-7.424 0.156-0.597 0.279-1.090 0.275-1.093-0.004 0-4.080 0.011-9.057 0.025-4.974 0.014-9.050 0.025-9.057 0.018-0.004-0.004-0.177-0.652-0.384-1.437l-0.376-1.426-1.596-0.011-1.6-0.007-0.018-0.091c-0.011-0.051-0.025-0.13-0.036-0.177-0.040-0.203-0.416-0.311-1.086-0.311-0.261 0-0.608 0.018-0.771 0.036-0.326 0.043-0.554 0.014-1.003-0.112-0.742-0.217-1.234-0.63-1.31-1.104-0.018-0.112-0.004-0.145 0.159-0.315 0.72-0.764 1.039-1.795 1.108-3.569l0.007-0.235 0.507-0.445c0.275-0.243 0.55-0.463 0.608-0.485 0.116-0.047 0.181-0.036 0.568 0.109 0.279 0.101 0.51 0.098 0.637-0.011 0.090-0.076 0.098-0.105 0.094-0.297-0.004-0.17 0.007-0.224 0.069-0.279 0.065-0.062 0.072-0.098 0.054-0.228-0.014-0.127-0.007-0.159 0.033-0.159 0.080 0 0.127-0.119 0.127-0.319v-0.177l0.181 0.018c0.167 0.014 0.181 0.011 0.224-0.080 0.054-0.123 0.004-0.337-0.152-0.655-0.098-0.203-0.101-0.221-0.043-0.282 0.098-0.109 0.101-0.55 0.011-0.963-0.043-0.188-0.069-0.347-0.065-0.355 0.007-0.007 0.094 0.004 0.192 0.022s0.185 0.029 0.188 0.022c0.033-0.033-0.076-0.413-0.181-0.63-0.152-0.326-0.539-0.71-0.88-0.88-0.138-0.072-0.391-0.163-0.561-0.206-0.402-0.105-1.082-0.134-1.408-0.058zM41.969 16.17c-0.014 0.058-0.094 0.369-0.181 0.699-0.083 0.329-0.214 0.825-0.286 1.104s-0.148 0.557-0.167 0.623l-0.036 0.112-0.333 0.022c-0.185 0.011-1.126 0.029-2.096 0.040l-1.767 0.018v-2.679l1.531-0.011c0.84-0.004 1.94-0.011 2.443-0.018l0.912-0.007-0.022 0.098zM45.068 16.112c0 0.022-0.148 0.605-0.329 1.296l-0.333 1.26-0.76 0.022c-1.082 0.036-1.654 0.033-1.654-0.011 0-0.047 0.655-2.545 0.677-2.581 0.025-0.043 2.4-0.033 2.4 0.014zM31.374 16.261c0.018 0.087 0.177 0.699 0.355 1.361 0.174 0.662 0.311 1.213 0.304 1.22s-0.652 0.022-1.43 0.036l-1.415 0.029-0.098-0.376c-0.489-1.853-0.623-2.389-0.608-2.404 0.011-0.011 0.659-0.018 1.437-0.018h1.419l0.036 0.152zM36.453 17.444v1.336l-0.695 0.022c-0.384 0.011-1.227 0.025-1.875 0.029l-1.173 0.011-0.333-1.267c-0.181-0.699-0.34-1.31-0.355-1.368l-0.022-0.098h4.453v1.336zM44.235 19.338c-0.004 0.007-0.21 0.8-0.467 1.767l-0.463 1.756-1.202 0.011c-0.945 0.007-1.198 0-1.198-0.036 0-0.025 0.203-0.814 0.449-1.748l0.445-1.701 0.503-0.018c0.554-0.022 1.933-0.040 1.933-0.029zM41.122 19.392c0 0.033-0.825 3.211-0.872 3.367l-0.040 0.119h-3.106v-3.439l0.174-0.004c0.203-0.007 2.679-0.051 3.367-0.062 0.261-0.004 0.478 0.004 0.478 0.018zM36.453 21.158v1.719l-1.347-0.007-1.35-0.011-0.438-1.676c-0.279-1.068-0.424-1.683-0.398-1.694 0.022-0.007 0.536-0.018 1.144-0.025 0.608-0.004 1.394-0.011 1.748-0.018l0.641-0.007v1.719zM32.268 19.7c0.054 0.192 0.757 2.892 0.804 3.081l0.022 0.098-1.437-0.007-1.441-0.011-0.413-1.575c-0.224-0.865-0.42-1.611-0.431-1.654-0.022-0.080-0.014-0.080 0.373-0.094 0.214-0.004 0.858-0.014 1.43-0.018l1.039-0.007 0.054 0.188zM32.891 28.090c0.46 0.224 0.771 0.641 0.858 1.137 0.112 0.652-0.253 1.332-0.869 1.625-0.232 0.109-0.272 0.116-0.644 0.116-0.376 0-0.413-0.007-0.644-0.119-0.605-0.297-0.974-0.981-0.862-1.604 0.076-0.438 0.297-0.793 0.633-1.028 0.315-0.217 0.525-0.275 0.93-0.261 0.308 0.007 0.373 0.022 0.597 0.134zM41.061 28.087c0.449 0.214 0.775 0.652 0.862 1.155 0.112 0.626-0.261 1.314-0.869 1.611-0.224 0.109-0.264 0.116-0.637 0.116s-0.413-0.007-0.644-0.116c-0.963-0.456-1.187-1.712-0.442-2.458 0.333-0.333 0.644-0.453 1.14-0.438 0.3 0.011 0.376 0.029 0.59 0.13z"></path>
</symbol>
  </defs>
</svg>